<?xml version="1.0" standalone="no"?>
<!DOCTYPE svg PUBLIC "-//W3C//DTD SVG 1.1//EN" "http://www.w3.org/Graphics/SVG/1.1/DTD/svg11.dtd" >
<svg xmlns="http://www.w3.org/2000/svg" xmlns:xlink="http://www.w3.org/1999/xlink" version="1.1">
<metadata>
Copyright (c) 2021-2022 Bleskomat s.r.o.
</metadata>
<defs>
<font id="CheckbookLightning" horiz-adv-x="1327" >
  <font-face 
    font-family="CheckbookLightning"
    font-weight="400"
    font-stretch="normal"
    units-per-em="4096"
    panose-1="2 11 0 0 0 0 0 0 0 0"
    ascent="3276"
    descent="-820"
    x-height="2018"
    cap-height="3371"
    bbox="66 -639 2806 3461"
    underline-thickness="19"
    underline-position="-150"
    unicode-range="U+0020-00D3"
  />
<missing-glyph horiz-adv-x="3072" 
d="M512 0v2560h2048v-2560h-2048zM2496 64v2432h-1920v-2432h1920z" />
    <glyph glyph-name=".notdef" horiz-adv-x="3072" 
d="M512 0v2560h2048v-2560h-2048zM2496 64v2432h-1920v-2432h1920z" />
    <glyph glyph-name=".null" horiz-adv-x="0" 
 />
    <glyph glyph-name="nonmarkingreturn" 
 />
    <glyph glyph-name="space" unicode=" " 
 />
    <glyph glyph-name="exclam" unicode="!" horiz-adv-x="1102" 
d="M209 725q20 16 53 24.5t70 8.5h401h78q37 -4 74 -33q53 -49 53 -139v-414q0 -61 -4 -90q-8 -29 -33 -57q-29 -29 -57 -33q-33 -8 -103 -8h-401q-41 0 -78 4q-41 0 -74 41q-36 37 -36 123v434q0 90 57 139zM127 2716q-16 102 -16 200q0 58 4 86q0 181 131 299
q127 115 307 115q176 0 307 -119q127 -119 144 -291q4 -24 4 -69q0 -49 -9 -119q-8 -70 -16 -131l-295 -1606q-16 -155 -139 -155q-57 0 -94 45q-41 41 -54 110z" />
    <glyph glyph-name="dollar" unicode="$" horiz-adv-x="2011" 
d="M209 3105q49 49 147 49h140q65 0 94 20q33 33 33 66v119q0 45 32 73q33 29 78 29q111 0 111 -94v-123q0 -41 32.5 -61.5t86.5 -20.5q114 0 114 74v131q0 41 37 70q33 24 78 24q111 0 111 -90v-106q0 -70 20 -91q20 -20 82 -20h258q78 0 143 -45q62 -49 62 -131t-62 -139
q-61 -58 -143 -58h-242q-69 0 -90 -20q-24 -21 -24 -82v-758q0 -37 4 -74q0 -41 24 -61q25 -21 107 -21h192q127 0 189 -61q20 -16 41 -66q20 -49 20 -114v-1331q0 -95 -49 -148q-25 -29 -57 -37q-37 -8 -78 -8h-53l-209 -4q-74 0 -95 -16q-36 -13 -36 -66v-119
q0 -110 -95 -110q-110 0 -110 98v135q0 62 -82 62h-45h-62q-57 -13 -57 -86v-107q0 -106 -106 -106q-41 0 -70 32q-33 29 -33 70v98q0 58 -12 86q-33 37 -90 37h-234q-69 0 -118 53q-54 49 -54 123t57.5 127t135.5 53h184q74 0 98 17q25 8 25 94v41v741q0 86 -21 115
q-24 25 -110 25h-176q-49 0 -90 20q-45 21 -62 49q-37 58 -37 144v1343q0 98 66 156zM1081 2671q0 61 -28 86q-33 20 -82 20q-53 0 -82 -20.5t-29 -90.5v-774q0 -90 33 -114q16 -13 86 -13q57 0 82 21q20 16 20 94v791zM1090 1270q0 82 -25 102q-25 21 -86 21q-70 0 -94 -17
q-25 -20 -25 -114v-770q0 -86 21 -111q16 -25 114 -25q70 0 82 37q13 33 13 115v762zM1393 1376q-41 0 -50 -4q-36 -16 -36 -102v-762q0 -78 12 -102.5t41 -24.5q12 0 57 12q41 8 62 53q16 46 16 103v704q0 33 -29 78q-32 45 -73 45zM618 2646q0 82 -24 82q-29 0 -53.5 -49
t-24.5 -103v-626q0 -54 21 -99q16 -49 53 -49q28 4 28 86v758z" />
    <glyph glyph-name="percent" unicode="%" horiz-adv-x="2523" 
d="M168 3371q16 20 57 29q37 8 78 8h602q62 0 103 -21q36 -20 53 -57q12 -37 12 -94v-1077q0 -74 -24 -119q-54 -66 -152 -66h-573q-62 0 -95 8q-32 5 -57 25q-25 21 -33 57q-8 33 -8 78v1082q0 57 8 90q4 32 29 57zM291 246l1712 3043q49 94 143 94q29 0 58 -16
q57 -41 57 -98q0 -37 -33 -103l-1736 -3068q-33 -69 -123 -69q-37 0 -74 28q-37 25 -37 78q0 45 33 111zM1475 1401q36 37 139 37h602q57 0 98 -21q37 -20 53 -57q13 -41 13 -98v-1078q0 -86 -25 -114q-49 -66 -147 -66h-578q-106 0 -147 29q-25 24 -33 61t-8 78v1081
q0 54 8 86q4 33 25 62zM676 2200q20 28 20 90v348q0 74 25 102q24 25 61 45q33 21 78 45q12 9 12 45v45v189q0 53 -20.5 77.5t-65.5 24.5q-41 -4 -61 -4h-254q-94 0 -123 -29q-29 -32 -29 -102v-774q0 -78 13 -94q28 -33 86 -33h172q65 0 86 25zM1982 229q25 25 25 90v349
q0 69 29 106q16 17 73 49q58 29 62 33q12 12 12 41q-4 33 -4 49v193q0 53 -20.5 77.5t-65.5 24.5q-41 -4 -61 -4h-254h-66q-33 -4 -53 -33q-33 -33 -33 -102v-770q0 -82 25 -103q20 -24 73 -24h177q65 0 81 24z" />
    <glyph glyph-name="ampersand" unicode="&#x26;" horiz-adv-x="2601" 
d="M2404 25l74 -107q16 -33 16 -82q0 -33 -8 -57q-8 -29 -41 -45q-37 -17 -78 -17q-77 0 -110 45l-127 148l-53 57q-54 33 -135 33h-1582q-81 0 -127 16q-49 13 -81 62q-17 24 -17 69q-4 46 -4 70v1237q0 70 8 94q4 17 33 58q29 36 156 69t159 99q33 61 33 180v1245
q0 102 70 156q28 28 82 36q53 9 123 9h1380q143 0 201 -45q49 -50 49 -131v-1356q0 -66 -4 -103q-8 -41 -25 -61q-57 -82 -172 -82h-704h-50q-98 0 -114 -25q-8 -24 -8 -36q0 -33 28 -78l512 -733q62 -95 70 -103q41 -53 70 -53h4q28 4 65 115q33 106 144 106q61 0 114 -41
q49 -45 49 -106v-643zM1872 213q8 8 8 25q0 12 -4 28q-16 37 -37 66l-786 1106q-29 45 -49 65q-33 33 -62 33q-12 0 -20 -4q-41 -16 -58 -53q-20 -41 -20 -95v-991v-53q0 -111 24 -127q21 -20 45 -25q21 -4 107 -4h713q36 0 77 4q41 0 62 25zM2011 3011q-41 32 -86 45
q-45 8 -123 8h-704h-70q-41 -4 -86 -37q-49 -33 -65 -82q-21 -49 -21 -119v-491q0 -82 8 -115q8 -37 78 -135q86 -119 139 -135q49 -17 168 -17h566q143 0 213 82q65 78 65 185v639q0 49 -25 98q-24 45 -57 74z" />
    <glyph glyph-name="quotesingle" unicode="'" horiz-adv-x="799" 
d="M135 3355q25 32 70 45q41 8 102 8h250q98 0 139 -37q37 -37 37 -135v-447q0 -147 -82 -262q-82 -119 -205 -176q-40 -16 -102 -29q-61 -12 -135 -12q-29 4 -57 37q-25 29 -25 53v8q0 21 119 103t119 205q0 73 -46 98q-81 29 -163 57q-25 21 -33 66q-12 41 -12 98v217
q0 58 24 103z" />
    <glyph glyph-name="parenleft" unicode="(" horiz-adv-x="1356" 
d="M1188 -246q-8 -8 -25 -8q-69 0 -266 139q-303 217 -496 574q-262 487 -262 1134q0 516 217 971q176 365 447 610q233 213 373 213q32 0 49 -16q0 -20 -127 -225q-185 -295 -287 -586q-160 -459 -160 -975q0 -655 160 -1118q102 -295 279 -528q102 -132 102 -172
q0 -9 -4 -13z" />
    <glyph glyph-name="parenright" unicode=")" horiz-adv-x="1319" 
d="M1217 1593q0 -647 -259 -1130q-192 -357 -491 -574q-201 -143 -270 -143q-17 0 -25 8q164 176 336 615q197 495 197 1216q0 512 -160 971q-99 287 -287 586q-127 204 -127 229q16 16 53 16q144 0 373 -209q266 -241 442 -610q218 -454 218 -975z" />
    <glyph glyph-name="asterisk" unicode="*" horiz-adv-x="1343" 
d="M1024 2744q-4 -8 -4 -16t4 -16q16 -17 20 -25l78 -123q21 -41 21 -45q0 -45 -25 -57l-147 -111q-21 -16 -49 -16q-17 0 -33 4q-33 4 -58 49l-61 94q-33 41 -65 41q-41 0 -62 -37l-82 -106q-20 -33 -53 -41q-12 -4 -21 -4q-20 0 -36 12l-156 123q-21 12 -21 45q0 16 17 49
l65 94q29 49 29 66v16q0 33 -29 41l-159 62q-25 4 -37 49q-8 33 -8 49v12l53 148q16 45 49 53q12 4 25 4q20 0 45 -8l114 -41q29 -8 49 -8q17 0 29 4q25 20 25 61v144q0 41 16 69q16 25 70 25h168q65 0 82 -21q12 -20 12 -57v-143q0 -45 8 -62q8 -12 37 -16h24l115 37
q57 8 66 8q45 0 57 -41l57 -143q4 -21 4 -37q0 -21 -4 -37q-8 -45 -45 -49l-147 -58q-25 -8 -37 -41z" />
    <glyph glyph-name="comma" unicode="," horiz-adv-x="995" 
d="M418 -115q0 41 -21 62q-20 20 -57 28l-123 37l-57 17q-21 12 -29 37q-8 20 -8 94v430q0 53 12 82q8 28 37 53q29 20 61 29q33 8 66 8h397h78q37 -4 82 -37q45 -37 45 -135v-565q0 -275 -172 -467q-176 -197 -414 -197q-86 0 -127 28.5t-41 78.5q0 49 62 98q57 45 115 86
q53 41 73 82q21 37 21 151z" />
    <glyph glyph-name="period" unicode="." horiz-adv-x="967" 
d="M172 725q21 16 53 25q33 8 66 8h401h78q37 -4 74 -33q53 -49 53 -135v-418q0 -57 -4 -86q-8 -29 -33 -57q-24 -29 -57 -33q-37 -8 -107 -8h-393h-45q-74 0 -102 37q-29 32 -33 65q-8 33 -8 66v434q0 49 12 78q8 28 45 57z" />
    <glyph glyph-name="slash" unicode="/" horiz-adv-x="2212" 
d="M143 246l1712 3043q50 94 144 94q29 0 57 -16q58 -41 58 -94q0 -33 -9 -54q-8 -16 -28 -53l-1733 -3068q-33 -69 -123 -69q-37 0 -74 28q-36 25 -36 78q0 45 32 111z" />
    <glyph glyph-name="zero" unicode="0" horiz-adv-x="2875" 
d="M340 3187q86 82 209 135q147 65 295 65h1196q143 0 270 -49q127 -53 221 -135q205 -180 205 -467v-1966q0 -168 -37 -307q-41 -139 -119 -225q-106 -115 -233 -181q-156 -82 -324 -82h-1138q-180 0 -332 66q-152 61 -250 172q-172 197 -172 471v2064q0 127 78 267
q57 102 131 172zM934 2978q-176 0 -295 -99q-70 -53 -86 -122q-21 -74 -21 -185v-1880q0 -74 21 -123q16 -49 65 -94q70 -65 140 -82q65 -20 184 -20h983q107 0 176 28q70 25 127 91q58 61 78 122q16 62 16 160v1794q0 139 -20.5 196.5t-65.5 102.5q-57 58 -135 86
q-78 25 -180 25h-987zM1102 1483q24 16 57 24q33 9 66 9h397h78q37 -5 82 -37.5t45 -130.5v-418q0 -53 -4 -82q-8 -33 -33 -62q-25 -28 -53 -32q-33 -9 -107 -9h-393h-45q-70 0 -98 33q-33 33 -41 66q-4 16 -4 69v435q0 53 12 82q8 28 41 53z" />
    <glyph glyph-name="one" unicode="1" horiz-adv-x="1749" 
d="M225 3367q58 53 140 53h303q73 0 106 -4q29 -8 66 -37q82 -78 82 -217v-1446q0 -94 28 -127q49 -53 156 -53h295q90 0 155 -53q62 -58 62 -176v-1024q0 -103 -8 -144q-8 -45 -54 -86q-45 -45 -81 -49q-37 -8 -123 -8h-926h-57q-54 0 -86 8q-33 4 -62 25q-41 32 -57 77
q-17 46 -17 107v1098q0 98 70 168q33 32 135 57q103 25 131 57q25 29 33 82q4 49 4 135v787q0 90 -20 147q-25 58 -135 90q-115 29 -152 66q-49 57 -49 143v156q0 119 61 168z" />
    <glyph glyph-name="two" unicode="2" horiz-adv-x="1802" 
d="M180 3203q0 90 82 148q78 53 180 53h1004q70 0 102 -4q29 -9 62 -37q32 -33 53 -74q16 -45 16 -135v-1409q0 -62 -12 -107t-49 -82q-41 -40 -98 -57q-62 -20 -144 -20h-569q-102 0 -115 -4q-24 -9 -61 -41q-62 -58 -62 -148v-725q0 -69 4 -82q0 -8 29 -37q29 -28 66 -32
q37 -9 114 -9h656q90 0 155 -57q66 -57 66 -151q0 -82 -57 -136q-62 -57 -148 -57l-1003 -4h-66q-70 0 -102 12q-33 8 -62 37q-28 29 -37 74q-12 41 -12 110v1381q0 78 12 123q9 41 45 86q70 69 205 69h668h78q41 8 69 41q25 29 25 111v782q0 78 -25 115q-24 33 -57 41
t-74 8h-688q-106 0 -176 57q-74 58 -74 160z" />
    <glyph glyph-name="three" unicode="3" horiz-adv-x="2159" 
d="M168 3211q0 90 70 148q65 53 159 53h967q102 0 147 -4q45 -8 91 -45q40 -41 53 -94q8 -54 8 -144v-1175q0 -37 4 -82q0 -45 37 -82t180 -86q66 -25 98 -58q54 -49 54 -163v-1155q0 -107 -4 -152q-9 -49 -45 -94q-41 -49 -99 -62q-57 -16 -139 -16h-1401q-86 0 -143 53
q-62 49 -62 135t66 144q61 53 151 53h648q69 0 110 12q41 9 78 45q37 37 49 78q8 41 8 115v655q0 41 -4 82q-8 37 -53 78q-49 37 -135 37h-676q-98 0 -168 61q-74 58 -74 152q0 86 74 147q70 58 172 58h610q74 0 127 12q50 8 82 41q29 29 37 65q8 33 8 82v693q0 69 -4 86
q-8 36 -41 69q-32 29 -78 37q-45 8 -98 8h-635q-94 0 -159 62q-70 57 -70 151z" />
    <glyph glyph-name="four" unicode="4" horiz-adv-x="2535" 
d="M238 3355q36 28 77 41q37 8 99 8h319q53 0 86 -4q29 -9 58 -29q53 -41 65 -82q8 -41 8 -135v-1815q0 -102 37 -151q33 -49 115 -49h377q73 0 102 28q25 25 37 58q8 32 16 73q8 37 17 70q8 29 41 70q28 37 82 57q53 16 118 16h287q74 0 131 -36q98 -66 98 -213v-1033
q0 -77 -4 -110q-8 -33 -37 -74q-32 -45 -65 -57q-37 -13 -107 -13l-327 -4q-70 0 -111 13q-41 8 -74 49q-32 37 -41 82q-8 41 -8 98v274q0 70 -12 119q-16 45 -53 70q-37 20 -70 29q-33 4 -90 4h-987h-66q-61 0 -94 12q-37 8 -69 49q-17 21 -25 53q-8 29 -8 58q4 61 4 98
v2171q0 74 16 123q13 45 58 82z" />
    <glyph glyph-name="five" unicode="5" horiz-adv-x="2130" 
d="M221 3351q41 36 94 45q50 4 156 4h1290q90 0 156 -54q65 -57 65 -147q0 -98 -61 -156q-61 -57 -156 -57h-921h-78q-57 0 -74 -4q-33 -8 -69 -37q-74 -61 -74 -168v-663q0 -54 4 -99q0 -49 37 -78q33 -28 78 -32q45 -9 123 -9h929q119 0 197 -61q78 -66 78 -201v-1405
q0 -57 -4 -90t-33 -69q-29 -41 -78 -54q-53 -16 -131 -16h-1401q-94 0 -164 57q-73 54 -73 140q0 94 73 151q74 53 176 53h742q69 0 118.5 8.5t77.5 36.5q29 29 37 74q8 41 8 94v676q0 45 -8 82q-8 33 -32 62q-29 24 -66 32q-41 9 -82 9h-57h-684q-90 0 -148 16
q-57 12 -90 57t-37 94q-8 50 -8 144v1360q0 131 90 205z" />
    <glyph glyph-name="six" unicode="6" horiz-adv-x="2523" 
d="M233 3342q74 62 201 62h967q143 0 213 -49q94 -74 94 -209v-377q0 -123 -49 -213t-152 -90q-86 0 -151.5 57t-65.5 143v127q0 62 -20 107q-21 41 -53 61q-33 17 -115 17h-344q-82 0 -119 -33q-53 -33 -53 -131v-1049q0 -49 4 -90q0 -41 37 -73q32 -37 86 -46
q49 -12 139 -12h1298q74 0 127 -12q50 -16 86 -62q54 -65 54 -184v-1024q0 -74 -9 -110q-12 -41 -49 -82t-82 -54q-45 -16 -114 -16l-1729 -4h-57q-86 0 -139.5 37t-65.5 90q-16 49 -16 123v2851q0 90 16 147q12 53 61 98zM1929 1090q-20 28 -65 40q-45 9 -115 9h-78h-852
h-78q-49 -4 -90 -33t-57 -74q-16 -49 -16 -106v-308q0 -81 4 -102q4 -24 28 -57q21 -37 66 -45q45 -13 123 -13h917q82 0 127 13q41 8 82 57q29 33 37 78q8 41 8 94v283q0 61 -4 94q-8 33 -37 70z" />
    <glyph glyph-name="seven" unicode="7" horiz-adv-x="2175" 
d="M201 3351q28 28 82 45q49 16 151 16h1348q90 0 131 -4q37 -8 73.5 -45t49.5 -78q12 -45 12 -98v-1082q0 -73 -4 -114q-8 -45 -33 -70q-24 -25 -53 -45q-8 -4 -21 -12l-540 -250q-21 -8 -62 -49q-24 -25 -24 -86v-1278q0 -82 -54 -140q-57 -61 -143 -61t-151 57
q-70 54 -70 131v1426q0 78 8 115q4 32 33 81q12 21 53 54q41 28 62 37l503 241l58 41q16 25 20 90v99v434q0 65 -4 82q-8 37 -37 65q-33 29 -78 37t-106 8h-639h-66q-36 -4 -77 -32q-66 -50 -66 -144v-381q0 -82 -57 -135q-62 -57 -148 -57q-90 0 -151 57q-66 53 -66 139
v733q0 107 66 173z" />
    <glyph glyph-name="eight" unicode="8" horiz-adv-x="2892" 
d="M639 3371q33 20 90 24.5t86 4.5h1290q86 0 131 -9q41 -12 91 -49q86 -73 86 -217v-1188q0 -73 20 -122q16 -50 98 -82q193 -78 213 -111q21 -33 29 -70q4 -36 4 -98v-1208q0 -127 -53 -176q-58 -54 -111 -62q-57 -12 -155 -12h-1991q-90 0 -152 16q-61 13 -106 58
q-25 24 -33 73q-12 45 -12 103v1249q0 90 45 143q29 37 127 66q94 25 143 65q29 25 37 78q8 49 8 107v74v1114q0 163 115 229zM1946 2945q-25 21 -91 25q-65 4 -77 4h-611q-53 4 -82 4q-45 0 -81 -21q-41 -24 -50 -53q-12 -33 -12 -86v-61v-656q0 -94 16 -127
q37 -57 136 -57h741q70 0 111 33q36 32 45 78q4 45 4 81v680q0 70 -4 99q-9 28 -45 57zM1958 1446q-25 29 -57 37q-37 4 -107 4h-631h-45q-90 0 -119 -25q-61 -45 -61 -114v-725q0 -45 4 -86q0 -41 29 -74q28 -37 77.5 -49.5t102.5 -12.5h623q94 0 126.5 8.5t65.5 49.5
q29 41 29 131v737q0 70 -37 119z" />
    <glyph glyph-name="nine" unicode="9" horiz-adv-x="2527" 
d="M229 3318q41 49 99 69q53 17 135 17h1663q74 0 119 -17q41 -20 86 -69q77 -82 77 -209v-2888v-86q-8 -49 -41 -82q-32 -33 -65 -41q-37 -12 -102 -12l-369 -4q-66 0 -107 16q-41 17 -73 74q-13 20 -17 57t-4 74v1073q0 58 -8 90q-12 29 -41 62q-33 28 -65 37
q-37 4 -111 4h-979q-164 0 -221 78q-49 57 -49 163v1381q0 78 12 119t61 94zM1954 2920q-29 41 -78 54q-53 8 -82 8h-70h-917h-86q-45 -4 -86 -37q-41 -37 -49 -74q-13 -41 -13 -110v-639q0 -54 9 -86q4 -33 24 -66q53 -69 164 -69h991q90 0 156 57q61 53 61 168v647
q0 111 -24 147z" />
    <glyph glyph-name="colon" unicode=":" horiz-adv-x="1020" 
d="M184 2171q25 16 58 24q32 9 65 9h398h77q37 -4 82 -37q45 -37 45 -135v-418q0 -53 -4 -82q-4 -33 -28 -57q-25 -29 -58 -33q-37 -8 -106 -8h-394h-45q-73 0 -110 41t-37 127v430q0 94 57 139zM184 737q25 17 57.5 25t65.5 8h398h77q37 -4 82 -37q45 -37 45 -135v-418
q0 -53 -4 -82q-4 -32 -28 -57q-25 -29 -58 -33q-37 -8 -106 -8h-394h-45q-73 0 -110 41t-37 127v430q0 94 57 139z" />
    <glyph glyph-name="semicolon" unicode=";" horiz-adv-x="991" 
d="M180 2130q21 20 53 29q29 8 66 8h397h78q37 -8 82 -41t45 -131v-418q0 -53 -4 -82q-8 -33 -29 -57q-24 -29 -57 -33q-37 -8 -106 -8h-394h-45q-73 0 -106 41q-37 37 -37 123v434q0 98 57 135zM418 -115q0 41 -21 62q-20 20 -57 28l-123 37l-57 17q-21 12 -29 37
q-8 20 -8 94v430q0 53 12 82q8 28 37 53q29 20 61 29q33 8 66 8h397h78q37 -4 82 -37q45 -37 45 -135v-565q0 -275 -172 -467q-176 -197 -414 -197q-86 0 -127 28.5t-41 78.5q0 49 62 98q57 45 115 86q53 41 73 82q21 37 21 151z" />
    <glyph glyph-name="question" unicode="?" horiz-adv-x="2073" 
d="M205 3346q41 29 82 41q37 9 94 9h70h1306h94q45 -9 86 -41q37 -33 50 -70q8 -41 8 -115v-1044v-53q0 -45 -4 -66q-4 -29 -25 -65q-24 -37 -65 -62t-50 -29l-487 -237q-53 -25 -74 -58q-37 -53 -37 -98v-323q0 -74 -57 -131.5t-135 -57.5q-82 0 -139 53q-58 54 -58 140
v544q0 82 25 119q20 33 61 49l508 246q29 12 66 32.5t49 49.5q8 29 8 115v545q0 77 -65 118q-33 29 -99 29h-37h-598h-98q-49 -4 -90 -41q-53 -53 -53 -119v-327q0 -107 -58 -189q-57 -82 -151 -82q-99 0 -152 78q-57 78 -57 188v664q0 119 82 188zM741 741q50 41 95 41h405
q53 0 86 -12q21 -8 45 -29q53 -41 53 -127v-438q0 -82 -45 -119q-49 -41 -143 -41h-352q-111 0 -156 58q-24 20 -29 49q-8 29 -8 82v409q0 82 49 127z" />
    <glyph glyph-name="A" unicode="A" horiz-adv-x="2474" 
d="M582 3342q36 37 86 49q49 13 106 13h1319h123q57 -8 115 -53q57 -58 57 -152v-3015q0 -61 -25 -106q-41 -74 -135 -74t-131 62q-41 61 -41 122v1102q0 74 -12 127q-16 49 -62 94q-61 62 -192 62h-664q-36 0 -82 -4q-49 -4 -90 -33q-45 -29 -73 -82q-33 -53 -33 -102
v-1139q0 -135 -90 -180q-66 -33 -209 -33h-82h-61q-33 0 -62 -4q-102 0 -147 37q-62 49 -62 184v1196q0 57 12 86q9 29 33 62q8 8 201 94q143 61 143 213v1282q0 69 13 110q8 41 45 82zM1094 3117h-95q-45 -4 -90 -37q-86 -57 -86 -184v-721q0 -57 4 -111q0 -53 45 -90
q41 -41 95 -49q49 -12 135 -12h688q86 0 152 20q61 17 90 62q24 45 32 90q4 45 4 119v680q0 73 -4 114q-8 37 -45 78t-127 41h-53h-745z" />
    <glyph glyph-name="B" unicode="B" horiz-adv-x="2503" 
d="M2114 1958q24 -21 131 -57q102 -37 114 -50q54 -49 54 -163v-1409q0 -91 -9 -132q-12 -45 -61 -90q-33 -32 -70 -41q-41 -12 -102 -12h-70h-1667h-49q-53 0 -98 12q-49 9 -90 45q-62 58 -62 185v2949q0 61 17 98q12 33 41 62q57 53 172 53h1433q82 0 119 -4q33 -8 82 -53
q45 -50 45 -140v-1106q0 -90 70 -147zM1987 1520q-37 32 -86 45q-50 8 -119 8h-611q-94 0 -135 -4q-45 -8 -90 -49q-78 -70 -78 -181v-741q0 -61 13 -106q12 -50 53 -91t102 -57q58 -20 111 -20h594q90 0 147 16q54 12 103 57q86 82 86 217v701q0 127 -90 205zM1659 3002
q-25 33 -62 50q-57 28 -139 28h-328q-69 0 -106 -8q-41 -12 -78 -45q-74 -61 -74 -176v-672q0 -49 9 -98q4 -53 45 -99q61 -69 176 -69h356q74 0 123 24q49 25 82 70q53 70 53 184v648q0 45 -16 90q-17 41 -41 73z" />
    <glyph glyph-name="C" unicode="C" horiz-adv-x="2183" 
d="M238 3359q24 16 86 28q57 13 102 13h1429q70 0 111 -4q37 -9 66 -41q28 -37 36 -70q5 -37 5 -98v-627q0 -86 -5 -127q-8 -45 -45 -78q-36 -33 -86 -41q-49 -8 -69 -8h-279q-69 0 -86 4q-33 8 -69 41q-37 29 -54 74q-20 41 -20 94v340q0 45 -12 82q-17 37 -66 74
q-61 49 -180 49h-357q-98 0 -163 -45q-99 -70 -99 -201v-2191q0 -49 4 -115q0 -66 45 -115q74 -82 213 -82h693q86 0 131 13q41 8 90 53q82 78 82 201v295q0 106 37 167q32 58 135 58q78 0 119 -62q36 -65 36 -155v-627q0 -86 -4 -115q-8 -28 -53 -73q-69 -70 -188 -70
l-1377 -4h-114q-103 12 -135 57q-37 45 -45 90q-13 41 -13 107v2900q0 143 99 209z" />
    <glyph glyph-name="D" unicode="D" horiz-adv-x="2462" 
d="M209 3342q45 41 102 54q54 8 152 8h1057q209 0 364 -49q152 -50 266 -181q111 -131 156 -266q45 -139 45 -328v-1728q0 -180 -24 -295q-41 -188 -148 -311q-111 -127 -270 -189q-160 -65 -312 -65h-1224q-70 0 -115 16q-49 17 -86 70q-20 28 -25 86q-8 57 -8 94v2859
q0 82 17 135q12 49 53 90zM1888 2949q-49 66 -131 94q-82 25 -196 25h-402q-65 0 -102 -8q-41 -13 -86 -45q-107 -82 -107 -230v-2179q0 -69 17 -114q12 -46 53 -95q74 -86 217 -86h438q99 0 185 37q81 37 131 94q110 144 110 349v1851q0 90 -33 164q-32 69 -94 143z" />
    <glyph glyph-name="E" unicode="E" horiz-adv-x="2048" 
d="M193 3351q36 32 81 45q41 8 115 8h1335q86 0 148 -41q57 -45 57 -123q0 -86 -57 -123q-57 -41 -148 -41h-946q-86 0 -147 -24q-25 -9 -66 -37q-45 -33 -65 -82q-25 -49 -25 -99v-651q0 -65 8 -115q9 -53 45 -98q33 -45 103 -61q69 -21 168 -21h897q98 0 168 -37
q69 -36 69 -131q0 -94 -78 -135q-53 -29 -163 -29h-590q-53 0 -98 -12q-50 -12 -86 -49q-70 -70 -70 -188v-738q0 -106 49 -172q37 -45 94 -61q53 -21 131 -21h602q86 0 147.5 -36.5t61.5 -126.5q0 -86 -61.5 -119t-147.5 -33h-1232q-132 0 -189 8q-57 4 -102 45
q-45 37 -54 82q-12 41 -12 111v2920q0 70 12 111q9 41 46 74z" />
    <glyph glyph-name="F" unicode="F" horiz-adv-x="2044" 
d="M201 3363q28 24 81.5 32.5t69.5 8.5h1413q74 0 123 -49.5t49 -118.5q0 -70 -49 -119t-123 -49h-606q-78 0 -115 -4q-40 -8 -86 -41q-110 -78 -110 -197v-643q0 -86 8 -123q4 -41 41 -82q78 -90 229 -90h549q99 0 168 -37q70 -36 70 -127q0 -86 -66 -127q-69 -41 -168 -41
h-569q-66 0 -111 -12q-49 -16 -90 -57q-69 -70 -69 -180v-1160q0 -69 -49.5 -118t-114.5 -49q-66 0 -115 49q-53 45 -53 110v1413v86q-4 45 -29 86q-37 70 -160 111q-126 37 -151 78q-29 41 -33 90t-4 53v1143q0 111 70 164z" />
    <glyph glyph-name="G" unicode="G" horiz-adv-x="2544" 
d="M221 3301q25 33 74 53.5t147 20.5h95h1548h115q53 -8 98 -41q74 -57 74 -176v-504v-49q0 -70 -5 -82q-4 -8 -28 -37q-25 -32 -78 -41q-57 -12 -74 -12h-303q-86 0 -127 41q-20 16 -24 61q-9 45 -9 119v168q0 45 -4 86q-8 37 -41 78q-37 37 -82 49q-49 12 -102 12h-381
q-90 0 -164 -61q-41 -41 -53 -86q-16 -45 -16 -119v-2175v-53q0 -66 4 -86q4 -29 28 -70q21 -41 86 -65q62 -25 127 -25h652q106 0 151 12q41 13 82 50q78 73 78 209v720q0 95 -53 164q-70 86 -201 86h-205q-74 0 -131 49q-61 45 -61 115t61 115q62 45 135 45h586
q102 0 160 -57q28 -33 37 -82q8 -54 8 -111v-1327v-70q0 -65 -8 -102q-13 -37 -54 -78t-94 -53q-53 -17 -131 -17h-1634h-86q-82 0 -123 13q-45 8 -78 49q-37 41 -45 78q-12 32 -12 94v70v2822q0 61 12 110q12 45 49 90z" />
    <glyph glyph-name="H" unicode="H" horiz-adv-x="2540" 
d="M295 3387q70 0 119 -45q45 -49 45 -114v-1172q0 -69 41 -119q69 -73 172 -73h766q73 0 118 12q41 8 86 45q62 49 62 143v1131q0 74 49 127t123 53t123 -57.5t49 -134.5v-1061q0 -74 16 -127q13 -53 49.5 -86t131.5 -58q90 -24 131 -77q41 -58 41 -148v-1438
q0 -69 -4 -102q-9 -33 -50 -61q-20 -17 -61 -21t-82 -4h-328q-32 0 -77 4q-46 0 -74 37q-33 33 -33 115v45v1089q0 58 -4 94q-8 33 -33 70q-53 82 -160 82h-417h-103q-53 -4 -94 -37q-90 -65 -90 -172v-1081v-58q0 -61 -4 -94q-8 -33 -33 -57.5t-53 -28.5q-33 -8 -99 -8
h-368q-78 0 -103 29q-20 37 -20 110v86v3003q0 69 49 114t119 45z" />
    <glyph glyph-name="I" unicode="I" horiz-adv-x="983" 
d="M537 1847v1348q0 70 45 123t114 53q70 0 115 -53t45 -123v-3039q0 -45 -8 -78t-37 -53q-33 -25 -111 -25h-73h-324q-102 0 -139 45q-21 21 -25 49q-4 29 -4 70v45v1159q0 66 4 82q8 37 41 70q29 32 82 49q152 45 189 69q86 58 86 209z" />
    <glyph glyph-name="J" unicode="J" horiz-adv-x="2560" 
d="M1741 537v2646q0 86 45 155q41 66 123 66q90 0 135 -66q41 -65 41 -160v-1015q0 -58 8 -95q4 -36 29 -81q24 -50 188 -95q82 -24 111 -65q16 -25 33 -53q12 -33 12 -86v-1500q0 -45 -4 -65q-4 -29 -33 -66q-29 -41 -78 -49q-49 -12 -135 -12l-1864 4q-86 0 -123 8
q-36 4 -65 45t-29 115v41v659q0 127 17 164q12 37 53 58q41 16 106 16h340q111 0 144 -57q41 -50 41 -131v-398q0 -98 28 -139q17 -25 58 -45.5t110 -20.5h434h58q53 0 73 4q33 9 66 33q78 62 78 185z" />
    <glyph glyph-name="K" unicode="K" horiz-adv-x="2572" 
d="M156 229v2970q0 82 53 143q53 62 135 62q78 0 135 -62q53 -65 53 -151v-1045v-65q0 -45 9 -66q12 -33 45 -37h12q20 0 41 9q25 12 49 32l1278 1221q62 57 107 90q65 49 118 57q50 4 90 4q127 0 164 -28q33 -29 33 -62q0 -24 -4 -36q-8 -21 -41 -54l-1212 -1159
q-33 -29 -58 -61q-16 -29 -20 -45q0 -9 4 -13q12 -37 78 -37h49h926q69 0 130.5 -12t90.5 -37q28 -28 41 -73q12 -50 12 -111v-1475q0 -77 -45 -131q-49 -57 -148 -57l-311 -4q-74 0 -115 8q-40 4 -69 37t-33 70q-8 32 -8 106v1114q0 78 -8 115q-13 37 -49 65q-37 29 -74 37
q-41 8 -86 8h-340q-94 0 -144 -4q-53 -8 -94 -41q-73 -61 -73 -192v-1094q0 -86 -33 -147q-58 -78 -168 -78h-344q-127 0 -156 78q-12 24 -16 65q-4 37 -4 86z" />
    <glyph glyph-name="L" unicode="L" horiz-adv-x="2044" 
d="M553 1880v1335q0 78 45 136q41 53 111 53q69 0 114 -58q45 -57 45 -131v-2613v-57q0 -82 4 -103q5 -20 25 -49q37 -49 86 -65q45 -17 119 -17h598q106 0 176 -32q66 -33 66 -123t-66 -123q-70 -33 -176 -33h-1290q-82 0 -144 20q-65 17 -86 58q-20 37 -24 73.5t-4 90.5
v1114q0 86 8 119q4 28 28 61q25 33 140 61q110 29 151 74q74 86 74 209z" />
    <glyph glyph-name="M" unicode="M" horiz-adv-x="2945" 
d="M123 201v3006q0 33 4 66q0 28 20 61q46 57 119 57h352q91 0 140 -40q45 -41 73 -99l308 -692q24 -82 94 -82q29 0 53 21q21 16 41 53l406 700q16 29 45 58q28 24 45 41q49 36 127 36h663q78 0 131 -36q33 -25 45 -62q9 -37 9 -102v-66v-2957q0 -107 -58 -152
q-33 -28 -65 -32q-33 -9 -99 -9l-319 4q-70 0 -98 9q-33 4 -58 41q-24 32 -24 118v2724v86q-9 41 -49 53h-9q-24 0 -53 -24q-37 -33 -53 -70l-553 -942q-29 -53 -62 -82q-36 -33 -81 -33q-103 0 -148 107l-451 979q-16 41 -45 70q-24 20 -49 20h-16q-45 -12 -57 -49
q-17 -41 -17 -103v-2686q0 -82 -41 -148q-41 -70 -123 -70q-73 0 -110 70q-37 66 -37 156zM950 958q62 58 148 58h319q82 0 139 -49q58 -54 58 -136v-634q0 -74 -4 -107q-8 -33 -45 -65q-41 -37 -86 -41q-45 -9 -86 -9h-299q-74 0 -103 9q-33 4 -57 45q-25 37 -29 69
q-8 33 -8 99v618q0 41 16 82q17 41 37 61z" />
    <glyph glyph-name="N" unicode="N" horiz-adv-x="2576" 
d="M139 168v2945v127q8 61 54 119q40 53 131 53h323q70 0 115 -16q45 -21 86 -82l1065 -1299q61 -78 65 -82q33 -28 70 -28q12 0 25 4q32 8 45 37q8 28 8 82v77v1098q0 74 49 131q45 53 115 53q69 0 114 -53t45 -131v-3051q0 -66 -49 -111q-53 -49 -119 -49q-65 0 -110 49
q-49 45 -49 111v843q0 70 -4 107t-29 115q-25 73 -86 155l-1286 1602q-41 57 -78 82q-41 28 -78 28q-12 0 -24 -4q-50 -16 -66 -74q-16 -57 -16 -147v-2691q0 -70 -49.5 -119t-122.5 -49q-62 0 -103 49t-41 119zM967 983q57 57 143 57h324q45 0 77 -12q29 -12 58 -37
q61 -57 61 -139v-631q0 -61 -8 -102q-12 -41 -45 -70q-33 -33 -70 -41q-41 -12 -98 -12h-303q-78 0 -107 12q-32 12 -49 41q-20 25 -28 57q-9 33 -9 66v49v619q0 41 17 78q12 36 37 65z" />
    <glyph glyph-name="O" unicode="O" horiz-adv-x="2470" 
d="M1712 2074l-1220 -930l470 776l-434 210l1168 916l-406 -710zM188 3355q37 36 103 49q65 8 176 8h1614q61 0 106 -8t74 -33q66 -53 66 -164v-2978q0 -110 -58 -172q-37 -37 -86 -45q-49 -12 -123 -12l-1630 -4h-74q-69 0 -102 12q-37 8 -70 45q-37 37 -45 86
q-12 49 -12 123v2937q0 82 61 156zM741 3084q-77 0 -127 -12q-53 -16 -94 -57q-74 -74 -74 -209v-2163q0 -106 21 -168q20 -65 86 -119q45 -32 102 -45q54 -12 119 -12h533q77 0 147 25q66 24 94 69q25 41 33 90q4 45 4 123v1118q0 50 8 82q4 33 45 90q41 54 148 74
q102 17 155.5 29t61.5 53q4 41 4 74v74v688q0 32 -16 69q-21 37 -49 66q-70 61 -197 61h-1004z" />
    <glyph glyph-name="P" unicode="P" horiz-adv-x="2359" 
d="M205 3351q37 32 86 45q49 8 127 8h1573q127 0 192 -66q62 -65 62 -168v-1315q0 -65 -4 -118q-9 -58 -66 -115q-37 -41 -94 -49q-58 -12 -160 -12h-770q-102 0 -143 -9q-45 -8 -86 -45q-45 -41 -58 -82q-12 -45 -12 -110v-1127q0 -61 -8 -94q-13 -37 -45 -65
q-37 -29 -107 -29h-69h-283q-45 -4 -70 -4q-24 0 -45 8q-24 8 -49 37q-41 49 -41 160v2965q0 119 70 185zM741 3068q-118 0 -184 -49q-90 -70 -90 -209v-668q0 -74 16 -123q13 -49 49 -86q37 -41 94.5 -53t118.5 -12h893q148 0 213 82q62 78 62 159v738q0 119 -82 180
q-41 33 -82 41q-45 4 -139 4z" />
    <glyph glyph-name="Q" unicode="Q" horiz-adv-x="2462" 
d="M221 3346q37 41 94 54q58 8 160 8h1561h69q70 0 103 -4q28 -8 69 -45q82 -70 82 -205v-2900q0 -135 -57 -180q-33 -25 -172 -49q-119 -21 -119 -74q0 -8 4 -21l66 -188q16 -49 16 -78q0 -98 -102 -147q-37 -17 -78 -17q-70 0 -119 45t-82 123l-102 234q-29 65 -70 86
q-45 20 -127 20h-925q-95 0 -144 8q-49 4 -94 33q-98 57 -98 180v2954q0 98 65 163zM557 3031q-29 -33 -49 -70q-21 -36 -21 -82v-368v-103q9 -36 111 -57q98 -20 123 -61q20 -41 29 -86q8 -50 8 -99v-1593v-66q0 -28 4 -45q8 -20 29 -41q36 -36 110 -36h352h62q69 0 78 32
q4 9 4 17q0 20 -13 45q-28 65 -32 69l-95 238q-12 33 -12 66q0 114 107 167q32 17 82 17q114 0 151 -78l180 -389q25 -49 54 -98q24 -54 49 -58h16q29 0 58 21q36 28 61 77.5t33 98.5q8 45 8 115v2162q0 115 -66 189q-65 73 -200 73h-1016q-74 0 -119 -8q-45 -12 -86 -49z
" />
    <glyph glyph-name="R" unicode="R" horiz-adv-x="2621" 
d="M238 3375q24 21 65 29t86 8h1499h90q45 -4 95 -41q45 -41 45 -152v-1044q0 -70 8 -102q4 -33 33 -82q28 -54 155 -86q123 -37 147.5 -66t32.5 -65q9 -37 9 -86v-1483q0 -74 -4 -103q-9 -28 -37 -53q-33 -24 -62 -33q-28 -12 -90 -12h-340q-78 0 -147 49q-25 21 -33 78
q-12 53 -12 119v1053q0 73 -4 106q-9 29 -41 78q-54 82 -172 82h-410q-86 0 -123 -4q-41 -9 -82 -45q-69 -66 -69 -193v-1081v-49q0 -70 -5 -82q-20 -29 -28 -41q-62 -74 -168 -74h-266q-82 0 -140 20q-57 17 -90 74q-16 33 -16 90v62v2973q0 107 74 156zM774 3092h-98
q-49 -4 -98 -40q-95 -66 -95 -181v-725q0 -123 66 -184q45 -41 102 -57q58 -21 131 -21h688q95 0 148 17q49 16 98 69q62 78 62 205v680q0 78 -17 127q-20 45 -78 78q-45 32 -118 32h-45h-746z" />
    <glyph glyph-name="S" unicode="S" horiz-adv-x="2179" 
d="M184 3342q29 33 82 49q53 13 119 13h1421q74 0 107 -4q33 -9 69 -37q70 -53 70 -152v-651q0 -82 -41 -139.5t-115 -57.5q-81 0 -127 58q-49 53 -49 139v291q0 65 -4 98q-8 29 -37 70q-28 37 -69 49t-103 12h-762h-81q-41 -4 -86 -33q-111 -77 -111 -204v-664
q0 -106 57 -188q45 -58 78 -82.5t90 -24.5h1077q103 0 152 -4q45 -8 90 -49q41 -45 41 -119v-1470v-49q0 -46 -4 -74.5t-33 -65.5q-28 -37 -73 -45q-50 -12 -132 -12h-1470q-45 0 -82 8q-41 8 -78 49q-16 21 -20 62q-4 37 -4 90v684q0 86 49 139q45 49 168 49h282
q74 0 131 -53q58 -53 58 -156v-295q0 -110 45 -180q61 -94 188 -94l393 4q119 0 193 62q74 57 74 159v766q0 82 -8 131q-13 45 -50 82t-90 49q-53 13 -119 13h-1048q-103 0 -143 8q-41 4 -82 37q-41 28 -50 82q-12 49 -12 127v1359q0 37 8 78q4 41 41 86z" />
    <glyph glyph-name="T" unicode="T" horiz-adv-x="2470" 
d="M102 3215q0 78 66 127q61 45 147 45h1868q74 0 131 -45q58 -45 58 -114q0 -70 -54 -123q-53 -53 -123 -53h-372q-62 0 -78 -5q-29 -8 -70 -41q-61 -53 -61 -159v-2667q0 -69 -17 -114q-20 -50 -61 -70q-45 -21 -123 -21h-307q-70 0 -98 9q-33 4 -62 41q-33 36 -37 77
q-8 41 -8 82v2630q0 119 -57 180q-33 33 -82 49q-49 13 -115 13h-340q-82 0 -143 45q-62 41 -62 114z" />
    <glyph glyph-name="U" unicode="U" horiz-adv-x="2191" 
d="M172 197v3002q0 86 37 143q37 58 119 58q73 0 110 -58q37 -61 37 -147v-2601q0 -98 8 -143q4 -50 33 -78q74 -74 176 -74h410h49q49 0 66 4q28 8 65 33q53 37 74 86q16 49 16 131v2552v73q0 70 12 111q9 41 45.5 69.5t90 37t69.5 8.5h303q62 0 111 -41t65 -98
q13 -58 13 -144v-2838v-66q0 -70 -4 -98q-9 -29 -37 -62q-53 -57 -160 -57h-1413q-66 -4 -98 -4q-41 0 -74 8t-62 37q-61 57 -61 156z" />
    <glyph glyph-name="V" unicode="V" horiz-adv-x="2183" 
d="M139 1311v1908q0 78 45 136q41 53 119 53q74 0 111 -53q37 -58 37 -140v-1757v-184q4 -33 24 -62q17 -28 37 -57l471 -737q12 -25 36.5 -53.5t45.5 -40.5q8 -5 20 -5q5 -1 10 -1q12 0 23 6q29 12 53 32l86 82q29 25 50 74q49 94 49 172v2503q0 73 8 106q4 33 37 66
q29 28 69 41q41 12 86 12h320q53 0 98 -12q41 -17 61.5 -45.5t28.5 -65.5q9 -37 9 -70v-53v-2122v-90q0 -73 -29 -127q-29 -53 -78 -94l-696 -655q-45 -45 -86 -62q-41 -16 -115 -16q-90 0 -135 12q-49 13 -82 66l-664 1024q-12 16 -24 45q-12 24 -21 57q-4 21 -4 53v54z
" />
    <glyph glyph-name="W" unicode="W" horiz-adv-x="2949" 
d="M197 3305q57 82 159 82h312q110 0 155 -53t45 -139v-1950v-69q0 -54 4 -99q0 -49 21 -49q12 0 33 53q4 17 20 54l242 786q20 70 69 119q50 49 127 49q82 0 131.5 -41t86.5 -127l671 -1475q37 -86 62 -122q32 -54 61 -54q8 0 17 4q41 21 53 58q8 33 8 98v2736
q0 82 45 147.5t119 65.5t123 -57q45 -62 45 -144v-2977q0 -74 -4 -103q-9 -28 -41.5 -65t-69.5 -45q-37 -13 -98 -13l-303 -4q-82 0 -131 33q-50 29 -86 102l-594 1262q-21 45 -45 94q-29 49 -45 49q-17 0 -41 -53q-25 -57 -37 -94l-320 -1090q-12 -36 -33 -77
q-32 -70 -65 -107q-37 -41 -94 -74q-62 -36 -107 -36h-348q-94 0 -151 65q-17 21 -25 53q-8 29 -8 58v45v2949q0 61 8 90q4 29 29 65zM1364 3322q61 57 147 57h320q78 0 139 -49q58 -53 58 -135v-635q0 -66 -9 -102q-8 -37 -41 -70q-36 -33 -73 -41q-41 -12 -99 -12h-299
q-41 0 -86 8q-49 4 -73 45q-25 37 -29 74q-8 37 -8 98v618q0 41 16 82t37 62z" />
    <glyph glyph-name="X" unicode="X" horiz-adv-x="2224" 
d="M225 1262q41 53 312 262q196 151 196 278q0 140 -135 246l-307 238q-70 61 -107 135q-20 53 -20 114v78v619q0 65 49 119q45 49 119 49q69 0 114 -49q41 -54 41 -127v-521q0 -37 5 -69q0 -33 12 -70q28 -65 86 -110l381 -291q78 -54 168 -54q86 0 164 54l356 266
q16 8 45 36.5t41 49.5q45 74 45 188v529q0 65 49 114q45 45 111 45q61 0 110 -40.5t49 -98.5v-680q0 -106 -28 -176q-13 -37 -58 -82q-16 -16 -49 -41l-274 -217q-78 -61 -127 -131q-53 -70 -53 -123q0 -65 28 -123q25 -57 123 -131l299 -237q70 -45 98 -107q25 -65 25 -151
v-918q0 -78 -33 -123q-32 -49 -114 -49t-127 45q-50 45 -50 119v725v70v49q-8 33 -12 61q-4 29 -28.5 66t-57.5 57l-266 205q-41 33 -98 65q-86 54 -181 54q-65 0 -102 -17q-41 -16 -115 -65l-315 -230q-49 -32 -86 -94q-12 -29 -21 -69q-8 -41 -8 -115v-737
q0 -70 -45 -123.5t-119 -53.5q-69 0 -114 58q-49 53 -49 127v827q0 94 16 160q12 61 57 115z" />
    <glyph glyph-name="Y" unicode="Y" horiz-adv-x="2187" 
d="M160 2142v1069q0 135 123 156q12 4 24 4q58 0 99 -41q53 -49 53 -119v-872q0 -94 12 -152q8 -61 21 -90q8 -29 45 -57l364 -287q57 -41 107 -61q49 -25 110 -25q58 0 103 21q45 16 98 57l311 237q41 33 70 66q24 29 40.5 70t20.5 82t4 102v917q0 66 45 119q41 49 111 49
t115 -45q41 -49 41 -118v-1119q0 -86 -33 -155.5t-111 -130.5l-262 -189q-24 -16 -45 -37q-24 -24 -57 -65q-53 -74 -78 -144q-29 -69 -29 -159v-1020q0 -139 -49 -185q-53 -45 -156 -45h-258q-98 0 -135 9q-41 8 -61 41q-25 32 -33 77t-8 82v1041q0 94 -4 143
q-8 45 -41 102q-53 103 -152 172l-241 181q-54 41 -86.5 77.5t-49.5 69.5q-20 29 -24 70q-4 37 -4 102z" />
    <glyph glyph-name="Z" unicode="Z" horiz-adv-x="2433" 
d="M299 2273q-78 0 -119 62q-41 57 -41 139v659q0 74 8 107q5 29 37 65q29 33 74 45.5t90 12.5h62h1683h74q45 -4 65 -33q21 -33 21 -65q0 -33 -12 -66q-5 -8 -37 -70l-1520 -2728q-25 -41 -29 -57t-4 -29q-1 -5 -1 -10q0 -10 5 -18q9 -13 41 -21q29 -8 90 -8h644q40 0 73 4
q29 0 49 17q21 16 29 48.5t8 73.5v517q0 49 8 81q5 29 25 54q41 41 147 41h357q57 0 102 -9q41 -12 62 -32q20 -25 24 -58q4 -32 4 -82v-708q0 -62 -12 -103q-16 -41 -53 -73.5t-70 -40.5q-33 -13 -98 -13l-1692 -4q-98 0 -139 9q-41 4 -82 45q-25 20 -25 73q0 41 21 82
l1479 2691q20 41 32 74q13 29 13 49q0 21 -13 33q-20 20 -98 20h-45h-819q-94 0 -156 -41q-41 -24 -74 -81q-36 -58 -36 -115v-336q0 -82 -37 -139q-37 -62 -115 -62z" />
    <glyph glyph-name="a" unicode="a" horiz-adv-x="1608" 
d="M378 2006q24 22 56 29q32 8 69 8h857h80q37 -5 75 -32q37 -35 37 -91v-1810q0 -36 -16 -63q-27 -45 -88 -45t-85 38q-27 36 -27 73v661q0 45 -8 76q-10 30 -40 57q-40 37 -125 37h-431q-24 0 -54.5 -2.5t-57.5 -19.5q-29 -18 -47 -49q-22 -32 -22 -62v-683
q0 -81 -58 -108q-43 -20 -136 -20h-53h-40q-22 0 -40 -2q-67 0 -96 22q-40 29 -40 110v718q0 34 8 52q5 17 21 37q5 5 131 56q93 37 93 128v769q0 42 8 66q5 25 29 50zM711 1871h-62q-29 -3 -58 -23q-56 -34 -56 -110v-433q0 -34 2 -66q0 -32 30 -54q26 -25 61 -30
q32 -7 88 -7h447q56 0 99 12q40 10 59 37q15 27 20 54q3 27 3 72v408q0 43 -3 68q-5 22 -29 47t-82 25h-35h-484z" />
    <glyph glyph-name="b" unicode="b" horiz-adv-x="1627" 
d="M1374 1175q15 -13 85 -34q66 -22 74 -30q35 -30 35 -98v-846q0 -54 -6 -79q-7 -27 -39 -54q-22 -19 -46 -24q-26 -8 -66 -8h-46h-1083h-32q-34 0 -63 8q-32 5 -59 27q-40 34 -40 111v1769q0 37 11 59q8 20 26 37q37 32 112 32h932q53 0 77 -2q21 -5 53 -32q29 -30 29 -84
v-664q0 -54 46 -88zM1291 912q-24 19 -56 27q-32 5 -77 5h-397q-61 0 -88 -2q-29 -5 -58 -30q-51 -42 -51 -108v-445q0 -37 9 -64q7 -30 34 -54.5t66 -34.5q38 -12 72 -12h386q59 0 96 10q35 7 67 34q56 49 56 130v421q0 76 -59 123zM1078 1801q-16 20 -40 30q-37 17 -90 17
h-214q-44 0 -68 -4q-27 -8 -51 -28q-48 -36 -48 -105v-403q0 -30 6 -59q2 -32 29 -60q39 -41 114 -41h232q48 0 79 14q32 15 54 42q34 42 34 111v389q0 27 -10 54q-11 24 -27 43z" />
    <glyph glyph-name="c" unicode="c" horiz-adv-x="1419" 
d="M155 2016q15 9 56 17q37 7 66 7h929q45 0 72 -2q24 -5 43 -25q18 -22 23 -42q3 -22 3 -58v-377q0 -51 -3 -76q-5 -27 -29 -47t-56 -24.5t-45 -4.5h-181q-45 0 -56 2q-22 5 -45 25q-24 17 -35 44q-13 25 -13 57v204q0 27 -8 49q-11 22 -43 44q-39 30 -117 30h-232
q-64 0 -106 -27q-64 -42 -64 -121v-1315q0 -29 3 -69q0 -39 29 -69q48 -49 138 -49h451q55 0 85 8q26 5 58 32q53 46 53 120v177q0 64 25 101q20 34 87 34q51 0 78 -37q23 -39 23 -93v-376q0 -52 -3 -69q-5 -17 -34 -44q-45 -42 -122 -42l-895 -2h-74q-67 7 -88 34
q-24 27 -29 54q-9 24 -9 64v1740q0 86 65 126z" />
    <glyph glyph-name="d" unicode="d" horiz-adv-x="1600" 
d="M136 2006q29 24 66 32q35 5 99 5h687q136 0 235.5 -30t173.5 -108q72 -79 102 -160q29 -83 29 -197v-1037q0 -108 -16 -177q-26 -113 -96 -186q-72 -77 -175 -114q-104 -39 -203 -39h-796q-45 0 -74 10q-32 10 -56 42q-13 17 -16 51q-6 35 -6 57v1716q0 49 11 81
q8 29 35 54zM1227 1770q-32 39 -85 56q-53 15 -128 15h-261q-42 0 -66 -5q-27 -8 -56 -27q-69 -49 -69 -138v-1307q0 -42 11 -69q7 -27 34 -57q48 -51 141 -51h285q64 0 120 22q53 22 85 56q72 87 72 210v1110q0 54 -22 99q-21 41 -61 86z" />
    <glyph glyph-name="e" unicode="e" horiz-adv-x="1331" 
d="M125 2011q24 19 53 27q27 5 75 5h867q56 0 97 -25q37 -27 37 -74q0 -51 -37 -73q-37 -25 -97 -25h-614q-56 0 -96 -15q-16 -5 -43 -22q-29 -20 -42 -49q-16 -29 -16 -59v-391q0 -39 5 -69q6 -32 28.5 -59t67.5 -36q45 -13 109 -13h583q64 0 109 -22t45 -79q0 -56 -50 -81
q-35 -17 -106 -17h-384q-34 0 -63 -7q-33 -8 -56 -30q-46 -42 -46 -113v-443q0 -63 32 -103q24 -27 61 -36q34 -13 85 -13h391q56 0 97 -22q39 -22 39 -76q0 -51 -39 -71q-41 -20 -97 -20h-800q-86 0 -123 5q-37 2 -66 27q-30 22 -35 49q-8 25 -8 67v1752q0 42 8 67
q5 24 29 44z" />
    <glyph glyph-name="f" unicode="f" horiz-adv-x="1328" 
d="M131 2018q18 15 52.5 20t45.5 5h918q48 0 80 -30t32 -71q0 -42 -32 -71.5t-80 -29.5h-394q-50 0 -75 -2q-25 -5 -55 -25q-72 -47 -72 -118v-386q0 -52 5 -74q3 -24 27 -49q51 -54 149 -54h357q64 0 109 -22t45 -76q0 -52 -43 -77q-44 -24 -109 -24h-370q-43 0 -72 -7
q-32 -10 -58 -35q-45 -42 -45 -108v-696q0 -41 -32 -71q-32 -29 -75 -29t-74 29q-35 27 -35 66v848v52q-2 27 -19 52q-24 42 -104 66q-82 22 -98 47q-19 25 -21.5 54t-2.5 32v686q0 66 46 98z" />
    <glyph glyph-name="g" unicode="g" horiz-adv-x="1653" 
d="M144 1981q16 20 48 32t95 12h62h1006h75q34 -4 63 -24q49 -34 49 -106v-302v-30q0 -42 -4 -49q-2 -5 -18 -22q-16 -19 -51 -25q-37 -7 -48 -7h-197q-55 0 -82 25q-13 9 -16 36q-6 27 -6 72v100q0 27 -2 52q-5 22 -27 47q-24 22 -53 29q-32 7 -66 7h-248q-58 0 -107 -36
q-26 -25 -34 -52q-10 -27 -10 -71v-1305v-32q0 -40 2 -52q3 -17 18 -42q14 -24 55.5 -39t83.5 -15h424q68 0 98 7q26 8 53 30q51 44 51 126v432q0 57 -35 98q-45 52 -130 52h-134q-48 0 -85 29q-39 27 -39 69t39 69q40 27 88 27h381q66 0 104 -34q18 -20 24 -49q5 -32 5 -67
v-796v-42q0 -39 -5 -61q-9 -22 -35.5 -47t-60.5 -32q-35 -10 -86 -10h-1061h-56q-54 0 -80 8q-30 5 -51 29q-24 25 -29 47q-8 19 -8 56v42v1694q0 37 8 66q8 27 32 54z" />
    <glyph glyph-name="h" unicode="h" horiz-adv-x="1651" 
d="M192 2033q45 0 77 -27q29 -30 29 -69v-703q0 -42 27 -72q45 -43 112 -43h498q47 0 76 7q27 5 56 27q40 29 40 86v678q0 45 32 76.5t80 31.5t80 -34.5t32 -80.5v-637q0 -44 9.5 -76t33 -51.5t85.5 -34.5q59 -15 85 -46q27 -35 27 -89v-863q0 -42 -3 -61q-6 -20 -32 -37
q-13 -10 -40 -13q-27 -2 -53 -2h-213q-21 0 -50 2q-30 0 -49 23q-21 19 -21 69v27v653q0 35 -3 57q-5 19 -21 42q-34 49 -104 49h-271h-67q-34 -3 -61 -22q-59 -39 -59 -104v-648v-35q0 -37 -2 -57q-5 -19 -22 -34q-16 -15 -34 -17q-21 -5 -64 -5h-240q-50 0 -66 17
q-13 23 -13 66v52v1802q0 42 31 69q32 27 78 27z" />
    <glyph glyph-name="i" unicode="i" horiz-adv-x="639" 
d="M349 1108v809q0 42 29 74t74 32q46 0 75 -32t29 -74v-1823q0 -27 -5 -47t-24 -32q-21 -15 -72 -15h-48h-210q-66 0 -90 27q-14 13 -17 29q-2 18 -2 42v27v696q0 40 2 49q6 22 27 42q19 19 53 30q99 27 123 41q56 35 56 125z" />
    <glyph glyph-name="j" unicode="j" horiz-adv-x="1664" 
d="M1131 322v1588q0 52 30 93q26 40 80 40q58 0 87 -40q27 -39 27 -96v-609q0 -35 5 -57q3 -22 19 -49q16 -30 122 -57q54 -14 72 -39q11 -15 22 -31q8 -20 8 -52v-900q0 -27 -3 -39q-3 -18 -21 -40q-19 -24 -51 -29q-32 -7 -88 -7l-1211 2q-56 0 -80 5q-24 2 -42.5 26.5
t-18.5 69.5v24v396q0 76 11 98q8 23 34 35q27 10 69 10h221q72 0 94 -34q26 -31 26 -79v-239q0 -59 19 -83q11 -15 37 -27q27 -13 72 -13h282h37q35 0 48 2q21 6 43 20q50 37 50 111z" />
    <glyph glyph-name="k" unicode="k" horiz-adv-x="1672" 
d="M101 137v1783q0 49 34.5 86t88.5 37q50 0 87 -37q35 -39 35 -91v-627v-39q0 -27 6 -40q7 -20 29 -22h8q13 0 26 5q17 8 32 20l831 732q40 35 69 54q42 30 77 35q32 2 58 2q83 0 107 -17q21 -17 21 -37q0 -14 -2 -22q-5 -12 -27 -32l-787 -696q-22 -17 -38 -36
q-11 -18 -13 -27q0 -6 2 -8q8 -22 51 -22h32h602q45 0 85 -7.5t58 -22.5q19 -16 27 -43q8 -30 8 -67v-885q0 -46 -29 -79q-32 -34 -97 -34l-202 -2q-48 0 -74 3.5t-45 23t-22 42.5q-5 19 -5 63v669q0 47 -5 69q-9 22 -32.5 39t-47.5 22q-27 5 -56 5h-221q-61 0 -94.5 -3.5
t-60.5 -23.5q-47 -37 -47 -115v-657q0 -52 -21 -88q-38 -47 -110 -47h-223q-83 0 -102 47q-7 14 -10 39q-3 22 -3 51z" />
    <glyph glyph-name="l" unicode="l" horiz-adv-x="1328" 
d="M359 1128v801q0 47 30 82q26 32 72 32q45 0 74 -35q29 -34 29 -79v-1568v-34q0 -49 3 -62q3 -12 16 -29q24 -30 56 -39q29 -10 77 -10h389q69 0 114 -20q43 -19 43 -73t-43 -74q-45 -20 -114 -20h-839q-53 0 -93 12q-42 10 -56 35q-13 22 -16 44q-2 22 -2 54v669
q0 51 5 71q3 17 18 37q16 20 91 36q72 18 98 45q48 51 48 125z" />
    <glyph glyph-name="m" unicode="m" horiz-adv-x="1914" 
d="M80 121v1804q0 19 3 39q0 17 13 37q29 34 77 34h229q59 0 91 -24q29 -25 47 -59l200 -416q16 -49 61 -49q19 0 35 13q13 9 26 31l264 421q11 17 30 34q18 15 29 25q32 22 82 22h431q51 0 85 -22q22 -15 30 -37q5 -22 5 -61v-40v-1775q0 -64 -37 -91q-22 -17 -43 -19
q-21 -5 -64 -5l-207 2q-46 0 -64 5q-21 3 -38 25q-15 19 -15 71v1634v52q-6 25 -32 32h-6q-15 0 -34 -15q-24 -19 -35 -42l-359 -565q-19 -32 -40 -49q-24 -20 -53 -20q-67 0 -96 64l-293 588q-11 24 -30 42q-15 12 -31 12h-11q-29 -7 -37 -30q-11 -24 -11 -61v-1612
q0 -49 -27 -89q-26 -42 -80 -42q-47 0 -71 42q-24 40 -24 94zM617 575q41 35 97 35h207q53 0 90 -30q38 -32 38 -81v-381q0 -44 -3 -64q-5 -20 -29 -39q-27 -22 -56 -25q-29 -5 -56 -5h-194q-48 0 -67 5q-21 3 -37 26.5t-19 42.5q-5 20 -5 59v371q0 25 10 49q11 25 24 37z
" />
    <glyph glyph-name="n" unicode="n" horiz-adv-x="1674" 
d="M90 101v1767v76q6 37 35 72q26 32 86 32h209q46 0 75 -10q29 -13 56 -49l692 -780q40 -47 43 -49q21 -17 45 -17q8 0 16 3q21 4 29 22q6 17 6 49v46v659q0 45 32 79q29 32 74 32t74 -32q30 -32 30 -79v-1831q0 -39 -32 -66q-35 -30 -78 -30q-42 0 -71 30q-32 27 -32 66
v506q0 42 -3 64q-2 23 -18 69q-17 44 -56 93l-836 962q-27 34 -51 49q-26 17 -50 17q-8 0 -16 -3q-32 -9 -43 -44q-10 -34 -10 -88v-1615q0 -42 -32 -72q-33 -29 -80 -29q-40 0 -67 29q-27 30 -27 72zM628 590q38 34 93 34h211q29 0 50 -7q19 -7 38 -22q39 -35 39 -84v-378
q0 -37 -5 -62q-8 -24 -29.5 -42.5t-45.5 -23.5q-26 -7 -63 -7h-197q-51 0 -70 7q-21 7 -32 24q-13 15 -18.5 34.5t-5.5 39.5v30v371q0 25 11 47q8 21 24 39z" />
    <glyph glyph-name="o" unicode="o" horiz-adv-x="1605" 
d="M122 2013q24 22 67 30q42 5 115 5h1048q40 0 69 -5q30 -5 48 -20q43 -32 43 -98v-1788q0 -66 -37 -103q-24 -22 -56 -27q-32 -7 -80 -7l-1060 -2h-48q-44 0 -66 7q-24 5 -45 27q-24 22 -30 51q-7 30 -7 74v1763q0 49 39 93zM482 1851q-50 0 -83 -7q-34 -10 -61 -35
q-48 -44 -48 -125v-1298q0 -64 14 -101q13 -39 55 -71q30 -20 67 -27q35 -8 77 -8h346q50 0 96 15q43 15 61 42q16 24 21 54q3 27 3 74v671q0 30 5 49q3 20 30 54q26 32 96 44q66 10 101 17.5t40 31.5q2 25 2 45v44v413q0 19 -10 41q-14 23 -32 40q-45 37 -128 37h-652z" />
    <glyph glyph-name="p" unicode="p" horiz-adv-x="1533" 
d="M133 2011q24 19 56 27q32 5 83 5h1022q82 0 125 -40q40 -39 40 -101v-789q0 -39 -3 -71q-5 -34 -42 -69q-25 -24 -62 -29q-37 -7 -104 -7h-500q-66 0 -93 -6q-29 -4 -56 -27q-29 -24 -37 -49q-8 -27 -8 -66v-676q0 -37 -5 -57q-9 -22 -30 -39q-24 -17 -69 -17h-45h-184
q-29 -2 -46 -2q-15 0 -29 4q-15 5 -32 23q-26 29 -26 96v1779q0 71 45 111zM482 1841q-77 0 -120 -29q-58 -42 -58 -126v-401q0 -44 10 -73q8 -30 32 -52q24 -25 61 -32q38 -7 77 -7h581q96 0 138 49q40 47 40 96v442q0 72 -53 108q-27 20 -53 25q-30 3 -91 3z" />
    <glyph glyph-name="q" unicode="q" horiz-adv-x="1600" 
d="M144 2008q24 25 61 32q37 5 104 5h1014h45q46 0 67 -2q18 -5 45 -27q53 -42 53 -123v-1741q0 -81 -37 -108q-21 -15 -112 -29q-77 -13 -77 -44q0 -5 3 -13l42 -113q11 -29 11 -47q0 -58 -66 -88q-24 -10 -51 -10q-46 0 -77.5 27t-53.5 74l-66 140q-19 39 -46 52
q-29 12 -82 12h-601q-62 0 -94 5q-32 2 -61 19q-64 35 -64 108v1773q0 59 43 98zM362 1819q-19 -20 -32 -42t-13 -49v-221v-62q5 -22 72 -34q63 -12 80 -37q13 -24 18 -51q6 -30 6 -60v-956v-39q0 -17 2 -27q5 -12 19 -25q23 -22 72 -22h228h41q44 0 50 20q3 5 3 10
q0 12 -9 27q-18 39 -20 41l-62 143q-8 20 -8 40q0 68 70 100q20 10 53 10q74 0 98 -47l117 -233q16 -30 35 -59q16 -32 32 -35h10q19 0 38 13q24 17 40 46.5t21 58.5q5 27 5 69v1298q0 69 -42.5 113t-129.5 44h-661q-48 0 -77 -5q-29 -7 -56 -29z" />
    <glyph glyph-name="r" unicode="r" horiz-adv-x="1703" 
d="M155 2025q15 13 42 18t56 5h974h59q29 -3 61 -25q29 -25 29 -91v-627q0 -42 6 -61q2 -20 21 -49q18 -33 101 -52q80 -22 96 -39.5t21 -38.5q6 -23 6 -52v-890q0 -44 -3 -62q-6 -17 -24 -32q-21 -14 -40 -19q-18 -8 -59 -8h-221q-50 0 -95 30q-16 12 -22 47q-7 31 -7 71
v632q0 44 -3 64q-6 17 -27 46q-35 50 -112 50h-266q-56 0 -80 -3q-27 -5 -53 -27q-45 -39 -45 -116v-648v-30q0 -42 -3 -49q-13 -17 -18 -25q-41 -44 -110 -44h-173q-53 0 -91 12q-37 10 -58 44q-10 20 -10 54v38v1784q0 64 48 93zM503 1856h-64q-32 -3 -63 -25
q-62 -39 -62 -108v-435q0 -74 43 -111q29 -24 66 -34q38 -12 85 -12h447q62 0 97 10q31 9 63 41q41 47 41 123v408q0 47 -12 76q-13 27 -50 47q-29 20 -77 20h-29h-485z" />
    <glyph glyph-name="s" unicode="s" horiz-adv-x="1416" 
d="M120 2006q18 19 53 29q34 8 77 8h924q48 0 69 -3q22 -5 45 -22q46 -32 46 -91v-391q0 -49 -27 -83.5t-75 -34.5q-52 0 -82 35q-32 32 -32 83v175q0 39 -3 59q-5 17 -24 42q-18 22 -45 29q-26 7 -67 7h-495h-52q-27 -2 -56 -20q-72 -46 -72 -122v-398q0 -64 37 -113
q29 -35 50 -49q22 -15 59 -15h700q67 0 98 -3q30 -5 59 -29q27 -27 27 -72v-882v-29q0 -28 -3 -45t-21.5 -39t-47.5 -27q-32 -7 -86 -7h-955q-29 0 -53 4q-27 5 -51 30q-10 12 -13 37q-3 22 -3 54v410q0 52 32 84q29 29 109 29h184q48 0 85 -31q38 -32 38 -94v-177
q0 -66 29 -108q39 -57 122 -57l255 3q78 0 126 37q48 34 48 95v460q0 49 -5 79q-9 27 -33 49t-58 29q-35 8 -78 8h-681q-67 0 -93 5q-26 2 -53 22q-27 17 -32 49q-8 30 -8 77v815q0 22 5 47q3 25 27 52z" />
    <glyph glyph-name="t" unicode="t" horiz-adv-x="1605" 
d="M66 1929q0 47 43 77q40 27 96 27h1214q48 0 85 -27q38 -27 38 -69t-36 -74q-34 -32 -79 -32h-242q-41 0 -51 -3q-19 -4 -45 -24q-40 -32 -40 -96v-1600q0 -41 -11 -68q-13 -30 -40 -42q-29 -13 -80 -13h-199q-46 0 -64 5q-21 3 -40 25q-22 22 -24 46q-5 25 -5 49v1579
q0 71 -37 108q-22 19 -54 29q-32 8 -75 8h-220q-54 0 -93 27q-41 25 -41 68z" />
    <glyph glyph-name="u" unicode="u" horiz-adv-x="1424" 
d="M112 118v1802q0 51 24 85.5t77 34.5q48 0 72 -34q24 -37 24 -89v-1561q0 -58 5 -85q3 -30 21 -47q48 -45 115 -45h266h32q32 0 43 3q18 5 42 20q35 22 48 51q11 30 11 79v1531v44q0 42 6.5 66.5t30.5 42t58.5 22.5t45.5 5h197q40 0 72 -25q32 -24 42 -59q8 -34 8 -86
v-1703v-40q0 -42 -2 -59q-6 -17 -24 -37q-35 -34 -104 -34h-918q-43 -2 -64 -2q-27 0 -48 4q-22 5 -41 23q-39 34 -39 93z" />
    <glyph glyph-name="v" unicode="v" horiz-adv-x="1419" 
d="M90 787v1145q0 47 30 81q26 32 77 32q48 0 72 -32q24 -34 24 -84v-1054v-110q3 -20 16 -38q11 -16 24 -34l306 -442q8 -15 23.5 -32t29.5 -25q5 -3 13 -3q3 -1 6 -1q8 0 16 4q18 8 34 20l56 49q19 15 32 44q32 57 32 103v1503q0 43 5 63q3 20 25 40q18 17 44 24
q27 8 56 8h208q35 0 64 -8q27 -10 40 -27t18 -39q6 -22 6 -42v-32v-1273v-55q0 -43 -19 -76q-18 -32 -50 -56l-453 -393q-29 -27 -56 -37q-26 -10 -74 -10q-59 0 -88 7q-32 8 -53 40l-432 614q-8 10 -15 27q-8 15 -14 35q-3 12 -3 31v33z" />
    <glyph glyph-name="w" unicode="w" horiz-adv-x="1917" 
d="M128 1983q37 50 103 50h203q72 0 101 -32t29 -84v-1170v-41q0 -33 3 -60q0 -29 13 -29q8 0 22 32q2 10 13 32l157 472q13 42 45 71q32 30 82 30q54 0 86 -25t56 -76l436 -885q24 -52 41 -74q20 -32 39 -32q5 0 11 2q27 13 35 35q5 20 5 59v1642q0 49 29 88.5t77 39.5
q49 0 80 -34q30 -38 30 -87v-1786q0 -45 -3 -62q-6 -17 -27 -39t-45 -27q-24 -8 -64 -8l-197 -2q-53 0 -85 18.5t-56 62.5l-386 757q-13 27 -29 56q-19 30 -29 30q-11 0 -27 -32q-16 -34 -24 -56l-208 -655q-8 -21 -21 -46q-21 -42 -43 -64q-24 -25 -61 -44q-40 -22 -69 -22
h-226q-62 0 -99 39q-11 13 -16 32q-5 17 -5 35v27v1769q0 37 5 54q3 18 19 39zM886 1994q40 34 96 34h208q51 0 89.5 -30.5t38.5 -80.5v-381q0 -39 -6 -61q-5 -22 -26 -42q-24 -20 -48 -25q-27 -7 -64 -7h-195q-26 0 -55 5q-32 2 -48 27q-16 22 -19 44q-5 23 -5 59v371
q0 25 10 49q11 25 24 38z" />
    <glyph glyph-name="x" unicode="x" horiz-adv-x="1445" 
d="M146 757q27 32 203 158q127 90 127 166q0 84 -87 148l-200 143q-45 36 -69 81q-13 32 -13 68v47v372q0 39 31 71q30 29 78 29q45 0 74 -29q27 -32 27 -76v-313q0 -22 3 -41q0 -20 8 -42q18 -39 55 -66l248 -175q51 -32 109 -32q56 0 107 32l231 160q11 4 29 22
q19 17 27 29q29 45 29 113v318q0 39 32 68q29 27 72 27q40 0 72 -24.5t32 -58.5v-409q0 -63 -19 -105q-8 -22 -37 -49q-11 -10 -32 -25l-178 -130q-51 -37 -83 -79q-34 -42 -34 -74q0 -39 18 -73q16 -35 80 -79l194 -142q46 -27 64 -64q16 -39 16 -91v-551q0 -47 -21 -74
q-21 -29 -74 -29q-54 0 -83 27q-32 27 -32 71v435v42v30q-6 19 -8 36q-3 18 -18 40q-17 22 -38 34l-173 123q-27 20 -64 39q-55 33 -117 33q-42 0 -66 -11q-27 -9 -75 -39l-205 -138q-32 -19 -56 -56q-8 -17 -13 -42q-6 -24 -6 -69v-442q0 -42 -29 -74t-77 -32q-45 0 -74 35
q-32 32 -32 76v496q0 57 10 96q8 37 37 69z" />
    <glyph glyph-name="y" unicode="y" horiz-adv-x="1421" 
d="M104 1285v642q0 81 80 94q8 2 16 2q37 0 64 -25q34 -29 34 -71v-523q0 -57 8 -92q5 -36 14 -54q5 -17 29 -34l237 -172q37 -25 69 -37q32 -15 72 -15q37 0 67 13q29 10 63 34l202 142q27 20 46 40q15 17 26 42t13 49q3 25 3 61v551q0 39 29 71q27 30 72 30q46 0 75 -27
q27 -30 27 -71v-672q0 -51 -22 -93q-21 -42 -72 -78l-170 -114q-16 -9 -29 -22q-16 -14 -37 -39q-35 -44 -51 -86q-19 -42 -19 -96v-612q0 -83 -32 -111q-34 -27 -101 -27h-168q-63 0 -87 5q-27 5 -40 25q-16 19 -22 46q-5 27 -5 49v625q0 57 -2 86q-6 27 -27 61
q-34 62 -99 103l-156 109q-36 25 -56 47q-22 21 -33 41q-13 18 -15 42q-3 22 -3 61z" />
    <glyph glyph-name="z" unicode="z" horiz-adv-x="1581" 
d="M194 1364q-50 0 -77 37q-27 34 -27 84v395q0 45 6 64q3 18 24 39q18 20 47.5 27.5t58.5 7.5h40h1094h48q30 -2 43 -20.5t13 -38.5q0 -19 -8 -39q-3 -5 -24 -42l-987 -1637q-17 -25 -19 -35q-3 -9 -3 -17q-1 -3 -1 -6q0 -6 4 -11q6 -8 25.5 -12.5t59.5 -4.5h418q26 0 48 2
q19 0 32 10t18 30q6 19 6 44v310q0 29 5 48q3 18 16 33q27 25 96 25h232q37 0 66 -6q27 -7 40 -19q13 -15 16 -35q2 -19 2 -49v-425q0 -37 -7 -62q-11 -24 -35 -44q-24 -19 -45 -24q-22 -8 -64 -8l-1100 -2q-63 0 -90 5q-27 2 -53 27q-16 12 -16 44q0 24 13 49l961 1615
q13 24 21 44q9 18 9 30t-9 19q-13 12 -64 12h-29h-532q-61 0 -101 -24q-27 -15 -48 -49q-24 -35 -24 -69v-201q0 -50 -24 -84q-24 -37 -75 -37z" />
    <glyph glyph-name="cent" unicode="&#xa2;" horiz-adv-x="1413" 
d="M180 2978q45 28 123 28h156q78 0 98 17q21 16 21 74v155q0 49 36 86q37 37 78 37q45 0 82 -33q37 -32 37 -86v-159q0 -50 29 -74q12 -12 41 -17h53h209q90 0 147 -49q53 -49 53 -139v-295v-78q-4 -37 -32 -82q-8 -20 -45 -41q-41 -20 -66 -20h-160q-49 0 -90 33
q-45 32 -53 82q-8 45 -8 65v58q0 57 -4 94q-8 32 -25 32q-37 0 -37 -69v-107q-20 -110 -131 -110q-49 0 -86 28q-37 29 -37 74v164q0 94 -82 94q-53 0 -81.5 -20.5t-28.5 -85.5v-1360q0 -148 102 -148q99 0 99 91v155q0 53 32 90q29 33 78 33t82 -33q33 -32 33 -86v-151
q0 -62 45 -78q41 -21 102 -21q66 0 103 20.5t37 78.5v200q0 62 32 103q29 37 82 37q58 0 90 -37q33 -37 33 -98v-394q0 -41 -4 -61q-4 -25 -29 -49q-41 -41 -123 -41h-237q-66 0 -98 -25q-37 -29 -37 -74v-172q0 -49 -29 -86q-29 -36 -78 -36q-45 0 -82 32q-37 33 -37 86
v140q0 77 -20 106q-21 25 -53.5 29t-77.5 4h-156q-65 0 -102 37q-41 37 -41 118v1807q0 78 57 127z" />
    <glyph glyph-name="sterling" unicode="&#xa3;" horiz-adv-x="2281" 
d="M782 2482q25 0 33 90q4 86 4 119v389q0 74 45 127q41 49 107 49q65 0 110 -49t45 -119v-852v-155q9 -78 37 -115l709 -872q41 -54 41 -119q0 -53 -37 -86q-41 -37 -90 -37q-78 0 -123 57l-410 496q-20 25 -49 49q-28 25 -49 25q-16 0 -25 -17q-12 -24 -12 -86v-69v-758
q0 -53 4 -78q4 -29 29 -70q25 -45 82 -82q53 -36 115 -36h671q66 0 119 -37q49 -41 49 -107q0 -61 -49 -98q-53 -41 -127 -41h-1290q-62 -4 -90 -4q-45 0 -66 4q-33 8 -61 33q-66 57 -66 176v1118q0 70 33 131q21 37 90 62q168 53 205 102q33 45 45 135q8 86 8 111
q-4 41 -4 49q-4 25 -16 49q-4 8 -33 45l-614 750q-37 49 -37 106q0 62 36.5 98.5t90.5 36.5q82 0 127 -57l336 -405q24 -29 32 -37q25 -21 45 -21z" />
    <glyph glyph-name="bullet" unicode="&#xa5;" horiz-adv-x="1356" 
d="M152 1868q61 86 188 86h655q103 0 181 -66q45 -37 61 -86q16 -53 16 -123v-643q0 -94 -41 -151q-57 -86 -168 -86h-737q-45 0 -82 20q-37 21 -65 58q-33 36 -41 77q-13 41 -13 111v659q0 78 46 144z" />
    <glyph glyph-name="nonbreakingspace" unicode="&#xca;" horiz-adv-x="2048" 
 />
    <glyph glyph-name="endash" unicode="&#xd0;" horiz-adv-x="2740" 
d="M303 1737q29 28 78 36.5t106 8.5h1643h115q49 12 94 20q45 4 123 49q78 41 114 41q29 0 70 -28q37 -29 37 -86q0 -21 -8.5 -58t-16.5 -57l-123 -377q-12 -61 -61 -90q-49 -33 -94 -37q-49 -8 -148 -8h-1544h-102q-45 -4 -111 -25q-24 -8 -115 -53q-94 -49 -143 -49
q-24 0 -49 12q-57 33 -57 103q0 24 16 90l106 401q5 21 29 58q25 32 41 49z" />
    <glyph glyph-name="emdash" unicode="&#xd1;" horiz-adv-x="1946" 
d="M303 1737q29 28 78 36.5t106 8.5h697q114 0 196 12t234 82q69 33 106 33t74 -25q16 -8 25 -24q16 -29 16 -66q0 -29 -8 -65q-12 -37 -17 -62l-110 -319q-17 -50 -33 -91q-20 -45 -53 -69q-37 -25 -66 -29q-32 -8 -82 -8h-53h-725h-102q-45 -4 -111 -25q-24 -8 -115 -53
q-94 -49 -143 -49q-24 0 -49 12q-57 33 -57 103q0 24 16 90l106 401q5 21 29 58q25 32 41 49z" />
    <glyph glyph-name="quotedblleft" unicode="&#xd2;" horiz-adv-x="1671" 
d="M705 2343q-17 -25 -54 -37q-41 -16 -114 -16h-254q-37 0 -70 4q-33 0 -57 28q-45 45 -45 144v446q0 148 82 266q77 115 200 173q58 24 131 32q70 8 111 8q29 -4 57 -36q25 -29 25 -54v-8q0 -28 -119 -106t-119 -201q0 -74 45 -98l164 -58q29 -24 37 -65t8 -99v-221
q0 -57 -28 -102zM1528 2343q-21 -33 -62 -41q-45 -12 -110 -12h-250q-37 0 -70 4q-32 0 -57 28q-45 41 -45 144v446q0 148 82 266q78 115 201 173q57 24 131 32q69 8 110 8q29 -4 58 -36q24 -29 24 -54v-8q0 -28 -119 -106q-118 -78 -118 -201q0 -74 45 -98q82 -29 163 -58
q29 -24 37 -65t8 -99v-221q0 -57 -28 -102z" />
    <glyph glyph-name="quotedblright" unicode="&#xd3;" horiz-adv-x="1622" 
d="M135 3383q25 33 70 45q41 9 102 9h250h70q32 -5 61 -33q45 -45 45 -144v-446q0 -143 -82 -262q-86 -119 -205 -172q-53 -25 -118 -33q-70 -12 -119 -12q-29 4 -57 37q-25 28 -25 53v8q0 25 119 106.5t119 200.5q0 99 -95 119q-94 20 -118.5 40.5t-32.5 61.5t-8 99v221
q0 57 24 102zM954 3383q25 33 70 45q41 9 102 9h250h70q33 -5 61 -33q45 -45 45 -144v-446q0 -143 -82 -262q-86 -119 -204 -172q-54 -25 -119 -33q-70 -12 -119 -12q-29 4 -57 37q-25 28 -25 53v8q0 25 119 106.5t119 200.5q0 99 -94.5 119t-119 40.5t-32.5 61.5t-8 99v221
q0 57 24 102z" />
    </font>
</defs>
</svg>
